REM DIRINDEX 1\2,1\3
REM DIRNAME cjc052,folder01,folder02
TITLE ""
FILE "Disk1Track16.mp3" MP3
  TRACK 01 AUDIO
    TITLE "2:cjc052_0085"
    INDEX 01 00:00:00
  TRACK 02 AUDIO
    TITLE "2:cjc052_0086"
    INDEX 01 00:02:53
  TRACK 03 AUDIO
    TITLE "2:cjc052_0087"
    INDEX 01 00:07:29
  TRACK 04 AUDIO
    TITLE "2:cjc052_0088"
    INDEX 01 00:10:66
  TRACK 05 AUDIO
    TITLE "2:cjc052_0089"
    INDEX 01 00:22:64
  TRACK 06 AUDIO
    TITLE "0:"
    INDEX 01 00:26:67
